<?xml version="1.0" encoding="UTF-8"?>
<svg width="54px" height="47px" viewBox="0 0 54 47" version="1.1" xmlns="http://www.w3.org/2000/svg" xmlns:xlink="http://www.w3.org/1999/xlink">
    <!-- Generator: sketchtool 51.3 (57544) - http://www.bohemiancoding.com/sketch -->
    <title>D6045531-6312-464F-B4F1-0F4EAD228F46</title>
    <desc>Created with sketchtool.</desc>
    <defs></defs>
    <g id="Page-1" stroke="none" stroke-width="1" fill="none" fill-rule="evenodd">
        <g id="mas" transform="translate(-289.000000, -140.000000)">
            <g id="Group-2" transform="translate(290.000000, 141.000000)">
                <path d="M39.7807326,16.481603 C43.4881136,18.5234583 46,22.4683879 46,27 C46,33.627417 40.627417,39 34,39 C30.9265823,39 28.123026,37.8445857 26,35.944426 C23.876974,37.8445857 21.0734177,39 18,39 C11.372583,39 6,33.627417 6,27 C6,22.4683879 8.5118864,18.5234583 12.2192674,16.481603 C12.0751932,15.6761724 12,14.8468674 12,14 C12,6.2680135 18.2680135,0 26,0 C33.7319865,0 40,6.2680135 40,14 C40,14.8468674 39.9248068,15.6761724 39.7807326,16.481603 Z" id="Combined-Shape" stroke="#3399FF" stroke-width="2"></path>
                <ellipse id="Oval-3" fill="#3399FF" cx="18.5" cy="24.5" rx="2.5" ry="3.5"></ellipse>
                <ellipse id="Oval-3" fill="#3399FF" cx="33.5" cy="24.5" rx="2.5" ry="3.5"></ellipse>
                <path d="M25.9921141,35 C24.5651685,35 22.436219,31.8352498 23.138223,30.8028224 C23.8402269,29.770395 28.0927719,29.6950528 28.8460052,30.8028224 C29.5992385,31.910592 27.4190596,35 25.9921141,35 Z" id="Triangle-2" stroke="#3399FF" stroke-width="2"></path>
                <path d="M26,45 C28.209139,45 30,43.1214181 30,40.8040698 C30,40.5378019 30,39.7646383 30,38.4845789 C29.2629191,38.2430987 28.558431,37.9070751 27.8865356,37.4765082 C27.314496,37.1099313 26.7736613,36.6987018 26.2640316,36.2428195 C26.204724,36.1897667 26.1167135,36.1088269 26,36 C25.8520119,36.1466159 25.7395906,36.2553201 25.6627362,36.3261126 C25.1742017,36.776114 24.6342996,37.1809421 24.0430298,37.5405971 C23.3122355,37.9851213 22.6312256,38.299782 22,38.4845789 C22,39.8033714 22,40.5765351 22,40.8040698 C22,43.1214181 23.790861,45 26,45 Z" id="Oval-4" stroke="#3399FF" stroke-width="2"></path>
                <path d="M19,2.06924576 C14.9919184,1.66422381 11.455429,3.03594718 8.39053156,6.18441586 C3.79318544,10.9071189 0.643093688,16.1773968 0.156029109,19.9902109 C-0.331035469,23.8030249 -0.00735509692,26.5274398 6.05410864,27 C6.0947151,24.9255721 6.57386513,22.9336121 7.89460132,20.7541203 C9.09665277,18.7704832 10.6172574,17.3214942 12.4564153,16.4071532 C11.9535793,13.3709939 12.3689039,10.5204062 13.7023893,7.85539002 C15.0358748,5.19037386 16.801745,3.26165911 19,2.06924576 Z" id="Path-2" stroke="#3399FF" stroke-width="2"></path>
                <path d="M52,2.07742236 C48.4293976,1.64769944 45.1719169,3.00681819 42.2275578,6.15477863 C37.8110192,10.8767193 34.6055407,16.1197163 34.1376317,19.9319149 C33.6697227,23.7441134 34.1180118,26.5275161 39.9410862,27 C39.9800956,24.9259069 40.3115494,23.0265916 41.5803428,20.8474516 C42.7351192,18.8641347 44.235986,17.3849716 46.0829432,16.4099622 C45.563338,13.3699781 45.9440559,10.5176931 47.2250971,7.85310718 C48.5061383,5.18852123 50.0977726,3.26329296 52,2.07742236 Z" id="Path-2" stroke="#3399FF" stroke-width="2" transform="translate(43.000000, 14.500000) scale(-1, 1) translate(-43.000000, -14.500000) "></path>
            </g>
        </g>
    </g>
</svg>