<?xml version="1.0" encoding="UTF-8"?>
<svg width="37px" height="46px" viewBox="0 0 37 46" version="1.1" xmlns="http://www.w3.org/2000/svg" xmlns:xlink="http://www.w3.org/1999/xlink">
    <!-- Generator: sketchtool 51.3 (57544) - http://www.bohemiancoding.com/sketch -->
    <title>1F5B1443-1216-461D-8EF2-1347FFB804DA</title>
    <desc>Created with sketchtool.</desc>
    <defs></defs>
    <g id="Page-1" stroke="none" stroke-width="1" fill="none" fill-rule="evenodd">
        <g id="mas" transform="translate(-298.000000, -79.000000)" stroke="#3399FF" stroke-width="2">
            <g id="Group-3" transform="translate(299.000000, 80.000000)">
                <circle id="Oval" cx="12" cy="19" r="3"></circle>
                <circle id="Oval" cx="23" cy="15" r="3"></circle>
                <circle id="Oval" cx="18" cy="30" r="3"></circle>
                <path d="M15.6695392,42.794267 L0.419790701,8.12877308 C-0.692154326,5.60111612 0.455506955,2.65063574 2.98316392,1.53869071 C3.34661196,1.37880579 3.7278112,1.26278279 4.11870545,1.19307372 C8.57882009,0.39769124 13.0391246,6.98264748e-16 17.4996189,0 C21.9602992,0 26.4209805,0.39772441 30.8816628,1.19317323 L30.8816639,1.19316715 C33.600205,1.67794957 35.4110243,4.2747564 34.9262418,6.99329755 C34.8565335,7.38420502 34.7405081,7.76541718 34.580618,8.12887702 L19.3309189,42.794267 C18.8861412,43.8053291 17.7059499,44.2643933 16.6948878,43.8196156 C16.2368746,43.6181304 15.8710244,43.2522802 15.6695392,42.794267 Z" id="Triangle"></path>
                <path d="M2,10 C7.16666667,8 12.3333333,7 17.5,7 C22.6666667,7 27.8333333,8 33,10" id="Line-4" stroke-linecap="square"></path>
            </g>
        </g>
    </g>
</svg>