<?xml version="1.0" encoding="UTF-8"?>
<svg width="50px" height="26px" viewBox="0 0 50 26" version="1.1" xmlns="http://www.w3.org/2000/svg" xmlns:xlink="http://www.w3.org/1999/xlink">
    <!-- Generator: sketchtool 51.3 (57544) - http://www.bohemiancoding.com/sketch -->
    <title>105324BB-0006-4D36-A310-98E8A4091F17</title>
    <desc>Created with sketchtool.</desc>
    <defs></defs>
    <g id="Page-1" stroke="none" stroke-width="1" fill="none" fill-rule="evenodd">
        <g id="mas" transform="translate(-305.000000, -34.000000)" stroke="#3399FF" stroke-width="2">
            <g id="Group-5" transform="translate(305.000000, 34.000000)">
                <path d="M10.9417988,1 C8.34964556,1 6.05058221,2.66465013 5.24153261,5.12731075 L1.29921305,17.1273107 C1.10065415,17.7317029 0.999479274,18.3638275 0.999479274,19 C0.999479274,22.3137085 3.68577077,25 6.99947927,25 L42.998598,25 C43.5669186,25 44.1323568,24.919255 44.6779621,24.7601854 C47.8592247,23.8326982 49.6862706,20.5018984 48.7587834,17.3206359 L45.2602208,5.32063588 C44.513768,2.76031795 42.1669473,1 39.5000353,1 L10.9417988,1 Z" id="Rectangle-6"></path>
                <path d="M6.56671191,17 L6.03648515,19.2312029 C6.01062364,19.3400286 5.99756015,19.4515022 5.99756015,19.5633585 C5.99756015,20.3567937 6.64076644,21 7.43420161,21 L42.4966045,21 C42.596506,21 42.6961592,20.9900518 42.7940892,20.9703026 C43.6087816,20.8060063 44.1360319,20.0123792 43.9717356,19.1976868 L43.5285355,17 L6.56671191,17 Z" id="Rectangle-7"></path>
                <path d="M11.4906879,10 L11.0012496,12 L15,12 L15,10 L11.4906879,10 Z" id="Rectangle-8"></path>
                <path d="M35.4906879,10 L35.0012496,12 L39,12 L39,10 L35.4906879,10 Z" id="Rectangle-8" transform="translate(37.000000, 11.000000) scale(-1, 1) translate(-37.000000, -11.000000) "></path>
                <path d="M19.1974537,10 L19.000082,12 L23,12 L23,10 L19.1974537,10 Z" id="Rectangle-8"></path>
                <path d="M28.1979649,10 L28.0000826,12 L32,12 L32,10 L28.1979649,10 Z" id="Rectangle-8" transform="translate(30.000000, 11.000000) scale(-1, 1) translate(-30.000000, -11.000000) "></path>
                <path d="M13.4048987,5 L12.9970335,7 L16,7 L16,5 L13.4048987,5 Z" id="Rectangle-8"></path>
                <path d="M36.5951013,5 L34,5 L34,7 L37,7 C37,6.99028054 36.9990415,6.98075312 36.9972381,6.9719102 L36.5951013,5 Z" id="Rectangle-8"></path>
                <path d="M20.1638725,5 L19.9993961,7 L23,7 L23,5 L20.1638725,5 Z" id="Rectangle-8"></path>
                <path d="M29.8357049,5 L27,5 L27,7 L30,7 C30,6.99509192 29.9997988,6.99020031 29.9994005,6.98536938 L29.8357049,5 Z M27,7 C27,7.03324092 26.9718203,7 26.8477418,7 L27,7 Z" id="Rectangle-8"></path>
            </g>
        </g>
    </g>
</svg>