<?xml version="1.0" encoding="UTF-8"?>
<svg width="36px" height="36px" viewBox="0 0 36 36" version="1.1" xmlns="http://www.w3.org/2000/svg" xmlns:xlink="http://www.w3.org/1999/xlink">
    <!-- Generator: sketchtool 51.3 (57544) - http://www.bohemiancoding.com/sketch -->
    <title>387A9D72-3B7A-4B2A-8B0C-3F0174F19BFD</title>
    <desc>Created with sketchtool.</desc>
    <defs></defs>
    <g id="Page-1" stroke="none" stroke-width="1" fill="none" fill-rule="evenodd">
        <g id="Inicio-Hover" transform="translate(-991.000000, -59.000000)" stroke="#7733FF">
            <g id="Spotify" transform="translate(986.000000, 55.000000)">
                <g id="Boton-spotify">
                    <g id="Spotify-Copy" transform="translate(6.000000, 5.000000)">
                        <g id="Group-4" transform="translate(7.000000, 10.000000)" fill="#7733FF">
                            <path d="M17.1512291,12.9787319 C11.0885851,9.94532487 2.60185854,11.2872017 2.24407115,11.3449935 C1.44514263,11.4758826 0.895787883,12.2828559 1.01667517,13.1468293 C1.13683129,14.0115944 1.88311534,14.6064008 2.68082524,14.4765673 C2.76003566,14.463109 10.6486626,13.2138572 15.9238331,15.8527498 C16.121981,15.9527638 16.3313403,16 16.5360687,16 C17.0893231,15.9989444 17.6177175,15.6587912 17.8650978,15.0806098 C18.2031435,14.2868309 17.8841083,13.3458018 17.1512291,12.9787319 Z" id="Fill-1"></path>
                            <path d="M19.1522469,8.13185189 C12.2820761,4.86137642 2.64851571,6.31060664 2.2409261,6.3742375 C1.44471585,6.49849302 0.896561329,7.26381684 1.01645493,8.08375297 C1.13610534,8.90494168 1.87978614,9.47060492 2.67599639,9.34710095 C2.76719335,9.33257107 11.8601381,7.97227373 17.9287485,10.8609641 C18.1262204,10.9559093 18.3343926,11 18.5394034,11 C19.0904762,11 19.618689,10.677086 19.8655288,10.1272052 C20.2028359,9.37365555 19.8837682,8.48006796 19.1522469,8.13185189 Z" id="Fill-2"></path>
                            <path d="M20.1438009,2.25419285 C12.4763408,-1.20529387 1.70892419,0.329537005 1.25389371,0.395987169 C0.448745298,0.514973745 -0.105055292,1.24784469 0.0168103212,2.03397173 C0.137693147,2.81937908 0.889279662,3.36201544 1.69344529,3.24302887 C1.79614655,3.22791565 12.0503025,1.77368859 18.9067175,4.86685978 C19.1062233,4.95777896 19.3175225,5 19.5239078,5 C20.0813939,5 20.6140646,4.69077884 20.8636925,4.16397537 C21.2052111,3.44261925 20.8828569,2.58692345 20.1438009,2.25419285 Z" id="Fill-3"></path>
                        </g>
                        <circle id="Oval-2" cx="17" cy="17" r="17"></circle>
                    </g>
                </g>
            </g>
        </g>
    </g>
</svg>